<?xml version="1.0" standalone="no"?>
<!DOCTYPE svg PUBLIC "-//W3C//DTD SVG 20010904//EN"
 "http://www.w3.org/TR/2001/REC-SVG-20010904/DTD/svg10.dtd">
<svg version="1.0" xmlns="http://www.w3.org/2000/svg"
 width="512.000000pt" height="512.000000pt" viewBox="0 0 512.000000 512.000000"
 preserveAspectRatio="xMidYMid meet">
<metadata>
Created by potrace 1.16, written by Peter Selinger 2001-2019
</metadata>
<g transform="translate(0.000000,512.000000) scale(0.100000,-0.100000)"
fill="#000000" stroke="none">
<path d="M2425 5103 c-77 -28 -139 -68 -185 -120 -90 -102 -110 -174 -110
-393 l0 -166 -67 -24 c-38 -12 -108 -43 -158 -67 -425 -209 -718 -588 -816
-1059 -19 -89 -22 -149 -29 -619 -7 -466 -10 -529 -28 -610 -71 -321 -234
-602 -473 -816 -80 -72 -113 -124 -131 -213 -28 -131 41 -273 163 -341 l54
-30 586 -3 585 -3 13 -62 c51 -245 247 -461 496 -544 73 -25 93 -27 235 -27
142 0 162 2 235 27 249 83 445 299 496 544 l13 62 585 3 586 3 54 30 c154 85
211 270 134 432 -10 21 -74 94 -143 163 -146 146 -231 262 -306 415 -61 125
-97 230 -126 360 -18 81 -21 144 -28 610 -7 470 -10 530 -29 619 -89 425 -339
780 -704 1000 -82 49 -226 116 -296 137 l-41 12 0 168 c0 138 -3 178 -20 231
-37 120 -113 207 -229 261 -58 28 -78 32 -166 34 -77 3 -112 -1 -150 -14z
m221 -222 c49 -22 97 -78 113 -130 6 -21 11 -92 11 -157 l0 -119 -210 0 -210
0 0 119 c0 65 5 136 11 157 26 85 111 149 199 149 25 0 63 -9 86 -19z m114
-636 c108 -18 269 -69 362 -116 359 -179 620 -527 694 -924 13 -72 18 -191 24
-600 7 -469 9 -518 29 -608 78 -353 222 -617 479 -874 116 -117 122 -126 122
-164 0 -31 -7 -47 -29 -70 l-29 -29 -1852 0 -1852 0 -29 29 c-23 23 -29 38
-29 70 0 40 6 47 113 154 261 259 411 530 488 882 20 92 22 139 29 610 6 409
11 528 24 600 74 397 335 745 694 924 89 45 254 98 353 115 114 19 294 19 409
1z m296 -3669 c-93 -257 -365 -407 -619 -341 -151 39 -285 149 -349 285 -20
41 -38 85 -41 98 l-5 22 519 0 519 0 -24 -64z"/>
</g>
</svg>
